<svg version="1.2"
    xmlns="http://www.w3.org/2000/svg" viewBox="0 0 176 176" width="512" height="512" fill="#ffffff">
    <path fill-rule="evenodd" d="m78 16v26c0 2.1-0.4 4.2-1.2 6.1-0.8 2-2 3.7-3.5 5.2-1.5 1.5-3.2 2.7-5.2 3.5-1.9 0.8-4 1.2-6.1 1.2h-46c-2.1 0-4.2-0.4-6.1-1.2-2-0.8-3.7-2-5.2-3.5-1.5-1.5-2.7-3.2-3.5-5.2-0.8-1.9-1.2-4-1.2-6.1v-26c0-2.1 0.4-4.2 1.2-6.1 0.8-2 2-3.7 3.5-5.2 1.5-1.5 3.2-2.7 5.2-3.5 1.9-0.8 4-1.2 6.1-1.2h46c2.1 0 4.2 0.4 6.1 1.2 2 0.8 3.7 2 5.2 3.5 1.5 1.5 2.7 3.2 3.5 5.2 0.8 1.9 1.2 4 1.2 6.1zm88.1-14.8c2 0.8 3.7 2 5.2 3.5 1.5 1.5 2.7 3.2 3.5 5.2 0.8 1.9 1.2 4 1.2 6.1v66c0 2.1-0.4 4.2-1.2 6.1-0.8 2-2 3.7-3.5 5.2-1.5 1.5-3.2 2.7-5.2 3.5-1.9 0.8-4 1.2-6.1 1.2h-46c-2.1 0-4.2-0.4-6.1-1.2-2-0.8-3.7-2-5.2-3.5-1.5-1.5-2.7-3.2-3.5-5.2-0.8-1.9-1.2-4-1.2-6.1v-66c0-2.1 0.4-4.2 1.2-6.1 0.8-2 2-3.7 3.5-5.2 1.5-1.5 3.2-2.7 5.2-3.5 1.9-0.8 4-1.2 6.1-1.2h46c2.1 0 4.2 0.4 6.1 1.2zm-98 78c2 0.8 3.7 2 5.2 3.5 1.5 1.5 2.7 3.2 3.5 5.2 0.8 1.9 1.2 4 1.2 6.1v66c0 2.1-0.4 4.2-1.2 6.1-0.8 2-2 3.7-3.5 5.2-1.5 1.5-3.2 2.7-5.2 3.5-1.9 0.8-4 1.2-6.1 1.2h-46c-2.1 0-4.2-0.4-6.1-1.2-2-0.8-3.7-2-5.2-3.5-1.5-1.5-2.7-3.2-3.5-5.2-0.8-1.9-1.2-4-1.2-6.1v-66c0-2.1 0.4-4.2 1.2-6.1 0.8-2 2-3.7 3.5-5.2 1.5-1.5 3.2-2.7 5.2-3.5 1.9-0.8 4-1.2 6.1-1.2h46c2.1 0 4.2 0.4 6.1 1.2zm98 40c2 0.8 3.7 2 5.2 3.5 1.5 1.5 2.7 3.2 3.5 5.2 0.8 1.9 1.2 4 1.2 6.1v26c0 2.1-0.4 4.2-1.2 6.1-0.8 2-2 3.7-3.5 5.2-1.5 1.5-3.2 2.7-5.2 3.5-1.9 0.8-4 1.2-6.1 1.2h-46c-2.1 0-4.2-0.4-6.1-1.2-2-0.8-3.7-2-5.2-3.5-1.5-1.5-2.7-3.2-3.5-5.2-0.8-1.9-1.2-4-1.2-6.1v-26c0-2.1 0.4-4.2 1.2-6.1 0.8-2 2-3.7 3.5-5.2 1.5-1.5 3.2-2.7 5.2-3.5 1.9-0.8 4-1.2 6.1-1.2h46c2.1 0 4.2 0.4 6.1 1.2z" />
</svg>